<mxfile host="app.diagrams.net" modified="2024-06-02T07:23:52.520Z" agent="Mozilla/5.0 (Windows NT 10.0; Win64; x64) AppleWebKit/537.36 (KHTML, like Gecko) Chrome/125.0.0.0 Safari/537.36" etag="98AJAk7eu-LLXfNLGJ14" version="24.4.13" type="device">
  <diagram name="第 1 页" id="kZiqCSSoVUTT4FhcWFst">
    <mxGraphModel dx="1050" dy="530" grid="1" gridSize="10" guides="1" tooltips="1" connect="1" arrows="1" fold="1" page="1" pageScale="1" pageWidth="827" pageHeight="1169" math="0" shadow="0">
      <root>
        <mxCell id="0" />
        <mxCell id="1" parent="0" />
        <mxCell id="Ro8yhhMSJCEcBP0mBvm3-2" value="env 1: 3010" style="rounded=1;whiteSpace=wrap;html=1;" vertex="1" parent="1">
          <mxGeometry x="640" y="120" width="120" height="60" as="geometry" />
        </mxCell>
        <mxCell id="Ro8yhhMSJCEcBP0mBvm3-3" value="env 3: 3013" style="rounded=1;whiteSpace=wrap;html=1;" vertex="1" parent="1">
          <mxGeometry x="640" y="360" width="120" height="60" as="geometry" />
        </mxCell>
        <mxCell id="Ro8yhhMSJCEcBP0mBvm3-4" value="env 2: 3011" style="rounded=1;whiteSpace=wrap;html=1;" vertex="1" parent="1">
          <mxGeometry x="640" y="240" width="120" height="60" as="geometry" />
        </mxCell>
        <mxCell id="Ro8yhhMSJCEcBP0mBvm3-5" value="webpack-dev-server" style="rounded=1;whiteSpace=wrap;html=1;" vertex="1" parent="1">
          <mxGeometry x="360" y="120" width="120" height="60" as="geometry" />
        </mxCell>
        <mxCell id="Ro8yhhMSJCEcBP0mBvm3-6" value="" style="endArrow=classic;html=1;rounded=0;exitX=1;exitY=0.5;exitDx=0;exitDy=0;entryX=0;entryY=0.5;entryDx=0;entryDy=0;" edge="1" parent="1" source="Ro8yhhMSJCEcBP0mBvm3-5" target="Ro8yhhMSJCEcBP0mBvm3-2">
          <mxGeometry width="50" height="50" relative="1" as="geometry">
            <mxPoint x="390" y="300" as="sourcePoint" />
            <mxPoint x="440" y="250" as="targetPoint" />
          </mxGeometry>
        </mxCell>
        <mxCell id="Ro8yhhMSJCEcBP0mBvm3-29" value="devServer.proxy" style="edgeLabel;html=1;align=center;verticalAlign=middle;resizable=0;points=[];" vertex="1" connectable="0" parent="Ro8yhhMSJCEcBP0mBvm3-6">
          <mxGeometry x="-0.0533" y="-1" relative="1" as="geometry">
            <mxPoint x="1" as="offset" />
          </mxGeometry>
        </mxCell>
        <mxCell id="Ro8yhhMSJCEcBP0mBvm3-37" style="edgeStyle=orthogonalEdgeStyle;rounded=0;orthogonalLoop=1;jettySize=auto;html=1;exitX=1;exitY=0.5;exitDx=0;exitDy=0;" edge="1" parent="1" source="Ro8yhhMSJCEcBP0mBvm3-16" target="Ro8yhhMSJCEcBP0mBvm3-36">
          <mxGeometry relative="1" as="geometry">
            <Array as="points">
              <mxPoint x="280" y="270" />
              <mxPoint x="280" y="370" />
            </Array>
          </mxGeometry>
        </mxCell>
        <mxCell id="Ro8yhhMSJCEcBP0mBvm3-16" value="localhost:3001" style="shape=parallelogram;perimeter=parallelogramPerimeter;whiteSpace=wrap;html=1;fixedSize=1;" vertex="1" parent="1">
          <mxGeometry x="80" y="240" width="120" height="60" as="geometry" />
        </mxCell>
        <mxCell id="Ro8yhhMSJCEcBP0mBvm3-18" style="edgeStyle=orthogonalEdgeStyle;rounded=0;orthogonalLoop=1;jettySize=auto;html=1;exitX=1;exitY=0.5;exitDx=0;exitDy=0;entryX=0;entryY=0.5;entryDx=0;entryDy=0;" edge="1" parent="1" source="Ro8yhhMSJCEcBP0mBvm3-17" target="Ro8yhhMSJCEcBP0mBvm3-5">
          <mxGeometry relative="1" as="geometry" />
        </mxCell>
        <mxCell id="Ro8yhhMSJCEcBP0mBvm3-17" value="localhost:8080" style="shape=parallelogram;perimeter=parallelogramPerimeter;whiteSpace=wrap;html=1;fixedSize=1;" vertex="1" parent="1">
          <mxGeometry x="80" y="120" width="120" height="60" as="geometry" />
        </mxCell>
        <mxCell id="Ro8yhhMSJCEcBP0mBvm3-39" style="edgeStyle=orthogonalEdgeStyle;rounded=0;orthogonalLoop=1;jettySize=auto;html=1;exitX=1;exitY=0.5;exitDx=0;exitDy=0;entryX=0;entryY=0.5;entryDx=0;entryDy=0;" edge="1" parent="1" source="Ro8yhhMSJCEcBP0mBvm3-22" target="Ro8yhhMSJCEcBP0mBvm3-36">
          <mxGeometry relative="1" as="geometry" />
        </mxCell>
        <mxCell id="Ro8yhhMSJCEcBP0mBvm3-22" value="localhost:3002" style="shape=parallelogram;perimeter=parallelogramPerimeter;whiteSpace=wrap;html=1;fixedSize=1;" vertex="1" parent="1">
          <mxGeometry x="80" y="360" width="120" height="60" as="geometry" />
        </mxCell>
        <mxCell id="Ro8yhhMSJCEcBP0mBvm3-41" style="edgeStyle=orthogonalEdgeStyle;rounded=0;orthogonalLoop=1;jettySize=auto;html=1;exitX=1;exitY=0.5;exitDx=0;exitDy=0;entryX=0;entryY=0.75;entryDx=0;entryDy=0;" edge="1" parent="1" source="Ro8yhhMSJCEcBP0mBvm3-23" target="Ro8yhhMSJCEcBP0mBvm3-36">
          <mxGeometry relative="1" as="geometry" />
        </mxCell>
        <mxCell id="Ro8yhhMSJCEcBP0mBvm3-23" value="localhost:3003" style="shape=parallelogram;perimeter=parallelogramPerimeter;whiteSpace=wrap;html=1;fixedSize=1;" vertex="1" parent="1">
          <mxGeometry x="75" y="480" width="120" height="60" as="geometry" />
        </mxCell>
        <mxCell id="Ro8yhhMSJCEcBP0mBvm3-43" style="edgeStyle=orthogonalEdgeStyle;rounded=0;orthogonalLoop=1;jettySize=auto;html=1;exitX=0.5;exitY=0;exitDx=0;exitDy=0;entryX=0.5;entryY=1;entryDx=0;entryDy=0;" edge="1" parent="1" source="Ro8yhhMSJCEcBP0mBvm3-36" target="Ro8yhhMSJCEcBP0mBvm3-5">
          <mxGeometry relative="1" as="geometry" />
        </mxCell>
        <mxCell id="Ro8yhhMSJCEcBP0mBvm3-44" value="除了 devSserver.proxy 中配置的代理之外，&lt;br&gt;其他仍转发到webpack-dev-server" style="edgeLabel;html=1;align=center;verticalAlign=middle;resizable=0;points=[];" vertex="1" connectable="0" parent="Ro8yhhMSJCEcBP0mBvm3-43">
          <mxGeometry x="0.0533" y="5" relative="1" as="geometry">
            <mxPoint as="offset" />
          </mxGeometry>
        </mxCell>
        <mxCell id="Ro8yhhMSJCEcBP0mBvm3-46" style="edgeStyle=orthogonalEdgeStyle;rounded=0;orthogonalLoop=1;jettySize=auto;html=1;exitX=1;exitY=0.25;exitDx=0;exitDy=0;entryX=0;entryY=0.5;entryDx=0;entryDy=0;" edge="1" parent="1" source="Ro8yhhMSJCEcBP0mBvm3-36" target="Ro8yhhMSJCEcBP0mBvm3-4">
          <mxGeometry relative="1" as="geometry" />
        </mxCell>
        <mxCell id="Ro8yhhMSJCEcBP0mBvm3-47" style="edgeStyle=orthogonalEdgeStyle;rounded=0;orthogonalLoop=1;jettySize=auto;html=1;exitX=1;exitY=0.5;exitDx=0;exitDy=0;entryX=0;entryY=0.5;entryDx=0;entryDy=0;" edge="1" parent="1" source="Ro8yhhMSJCEcBP0mBvm3-36" target="Ro8yhhMSJCEcBP0mBvm3-3">
          <mxGeometry relative="1" as="geometry" />
        </mxCell>
        <mxCell id="Ro8yhhMSJCEcBP0mBvm3-49" style="edgeStyle=orthogonalEdgeStyle;rounded=0;orthogonalLoop=1;jettySize=auto;html=1;exitX=1;exitY=0.75;exitDx=0;exitDy=0;entryX=0;entryY=0.5;entryDx=0;entryDy=0;" edge="1" parent="1" source="Ro8yhhMSJCEcBP0mBvm3-36" target="Ro8yhhMSJCEcBP0mBvm3-48">
          <mxGeometry relative="1" as="geometry" />
        </mxCell>
        <mxCell id="Ro8yhhMSJCEcBP0mBvm3-36" value="env-manage-webpack-plugin" style="rounded=1;whiteSpace=wrap;html=1;" vertex="1" parent="1">
          <mxGeometry x="360" y="360" width="120" height="60" as="geometry" />
        </mxCell>
        <mxCell id="Ro8yhhMSJCEcBP0mBvm3-48" value="env 4: 3013" style="rounded=1;whiteSpace=wrap;html=1;" vertex="1" parent="1">
          <mxGeometry x="640" y="480" width="120" height="60" as="geometry" />
        </mxCell>
        <mxCell id="Ro8yhhMSJCEcBP0mBvm3-52" value="devServer.proxy&lt;br&gt;根据配置转发请求到对应的环境地址" style="text;html=1;align=center;verticalAlign=middle;resizable=0;points=[];autosize=1;strokeColor=none;fillColor=none;" vertex="1" parent="1">
          <mxGeometry x="395" y="305" width="220" height="40" as="geometry" />
        </mxCell>
      </root>
    </mxGraphModel>
  </diagram>
</mxfile>
